# AST/ASF file generated using VICON BodyLanguage
# -----------------------------------------------
:version 1.10
:name VICON
:units
  mass 1.0
  length 0.45
  angle deg
:documentation
   .ast/.asf automatically generated from VICON data using
   VICON BodyBuilder and BodyLanguage model FoxedUp or BRILLIANT.MOD
:root
   order TX TY TZ RX RY RZ
   axis XYZ
   position 0 0 0  
   orientation 0 0 0 
:bonedata
  begin
     id 1 
     name lhipjoint
     direction 0.645893 -0.654526 0.392961 
     length 2.38111 
     axis 0 0 0  XYZ
  end
  begin
     id 2 
     name lfemur
     direction 0.34202 -0.939693 0  
     length 6.6822  
     axis 0 0 20  XYZ
    dof rx ry rz
    limits (-160.0 20.0)
           (-70.0 70.0)
           (-60.0 70.0)
  end
  begin
     id 3 
     name ltibia
     direction 0.34202 -0.939693 0   
     length 6.93904   
     axis 0 0 20   XYZ
    dof rx
    limits (-10.0 170.0)
  end
  begin
     id 4 
     name lfoot
     direction 0.0694967 -0.190941 0.979138   
     length 2.13616   
     axis -90 7.62852e-016 20   XYZ
    dof rx rz
    limits (-45.0 90.0)
           (-70.0 20.0)
  end
  begin
     id 5 
     name ltoes
     direction 1.535e-011 -4.2202e-011 1   
     length 1.07536   
     axis -90 7.62852e-016 20   XYZ
    dof rx
    limits (-90.0 20.0)
  end
  begin
     id 6 
     name rhipjoint
     direction -0.700219 -0.612087 0.367481   
     length 2.54621  
     axis 0 0 0  XYZ 
  end
  begin
     id 7 
     name rfemur
     direction -0.34202 -0.939693 0   
     length 6.55353   
     axis 0 0 -20   XYZ
    dof rx ry rz
    limits (-160.0 20.0)
           (-70.0 70.0)
           (-70.0 60.0)
  end
  begin
     id 8 
     name rtibia
     direction -0.34202 -0.939693 0   
     length 6.8736   
     axis 0 0 -20   XYZ
    dof rx
    limits (-10.0 170.0)
 end
 begin
     id 9 
     name rfoot
     direction -0.0679995 -0.186827 0.980037   
     length 2.1218  
     axis -90 -7.62852e-016 -20   XYZ
    dof rx rz
    limits (-45.0 90.0)
           (-20.0 70.0)
  end
  begin
     id 10 
     name rtoes
     direction -1.53589e-011 -4.21772e-011 1   
     length 1.06864   
     axis -90 -7.62852e-016 -20   XYZ
    dof rx
    limits (-90.0 20.0)
  end
  begin
     id 11 
     name lowerback
     direction -0.0416607 0.996347 -0.0745409   
     length 2.12205   
     axis 0 0 0   XYZ
    dof rx ry rz
    limits (-20.0 45.0)
           (-30.0 30.0)
           (-30.0 30.0)
  end
  begin
     id 12 
     name upperback
     direction -0.000153993 0.999276 -0.0380568   
     length 2.12759   
     axis 0 0 0   XYZ
    dof rx ry rz
    limits (-20.0 45.0)
           (-30.0 30.0)
           (-30.0 30.0)
  end
  begin
     id 13 
     name thorax
     direction 0.0187671 0.999821 -0.00241421   
     length 2.13704   
     axis 0 0 0   XYZ
    dof rx ry rz
    limits (-20.0 45.0)
           (-30.0 30.0)
           (-30.0 30.0)
  end
  begin
     id 14 
     name lowerneck
     direction 0.0268157 0.964865 0.261374   
     length 1.65253   
     axis 0 0 0   XYZ
    dof rx ry rz
    limits (-20.0 45.0)
           (-30.0 30.0)
           (-30.0 30.0)
  end
  begin
     id 15 
     name upperneck
     direction 0.00263774 0.939908 -0.341418   
     length 1.72375   
     axis 0 0 0   XYZ
    dof rx ry rz
    limits (-20.0 45.0)
           (-30.0 30.0)
           (-30.0 30.0)
  end
  begin
     id 16
     name head
     direction -0.00526001 0.989001 -0.147818  
     length 1.74878  
     axis 0 0 0   XYZ
    dof rx ry rz
    limits (-20.0 45.0)
           (-30.0 30.0)
           (-30.0 30.0)
  end
  begin
     id 17 
     name lclavicle
     direction 0.881214 0.461162 -0.103884  
     length 3.25108  
     axis 0 0 0   XYZ
    dof ry rz
    limits (-20.0 10.0)
           (0.0 20.0)
  end
  begin
     id 18 
     name lhumerus
     direction 1 -4.4899e-011 3.38092e-027   
     length 4.87408   
     axis 180 -30 -90   XYZ
    dof rx ry rz
    limits (-60.0 90.0)
           (-90.0 90.0)
           (-90.0 90.0)
  end
  begin
     id 19
     name lradius
     direction 1 -4.48931e-011 9.96288e-027   
     length 2.76729   
     axis 180 -30 -90   XYZ
    dof rx
    limits (-10.0 170.0)
  end
  begin
     id 20
     name lwrist
     direction 1 -4.4896e-011 1.50617e-026   
     length 1.38364   
     axis -9.31234e-015 90 90   XYZ
    dof ry
    limits (-180.0 0.0)
 end
  begin
     id 21 
     name lhand
     direction 1 -4.49038e-011 3.01286e-026   
     length 0.98922   
     axis -1.92217e-014 90 90   XYZ
    dof rx rz
    limits (-90.0 90.0)
           (-45.0 45.0)
  end
  begin
     id 22 
     name lfingers
     direction 1 -4.49051e-011 6.02588e-026   
     length 0.797535   
     axis -3.84436e-014 90 90   XYZ
    dof rx
    limits (0.0 90.0)
  end
  begin
     id 23
     name lthumb
     direction 0.707107 -6.34901e-011 0.707107   
     length 1.14511   
     axis -90 45 2.19363e-014   XYZ
    dof rx rz
    limits (-45.0 45.0)
           (-45.0 45.0)
  end
  begin
     id 24 
     name rclavicle
     direction -0.893894 0.441652 -0.0767889   
     length 3.29361  
     axis 0 0 0   XYZ 
    dof ry rz
    limits (-10.0 20.0)
           (-20.0 0.0)
  end
  begin
     id 25 
     name rhumerus
     direction -1 -4.48945e-011 8.0491e-028  
     length 4.71404   
     axis 180 30 90   XYZ
    dof rx ry rz
    limits (-90.0 60.0)
           (-90.0 90.0)
           (-90.0 90.0)
  end
  begin
     id 26 
     name rradius
     direction -1 -4.48986e-011 9.27795e-027   
     length 2.83468   
     axis 180 30 90   XYZ
    dof rx
    limits (-10.0 170.0)
  end
  begin
     id 27 
     name rwrist
     direction -1 -4.49029e-011 1.5064e-026   
     length 1.41734   
     axis -9.31234e-015 -90 -90   XYZ
    dof ry
    limits (-180.0 0.0)
  end
  begin
     id 28
     name rhand
     direction -1 -4.48857e-011 3.01165e-026   
     length 0.868195   
     axis -1.92217e-014 -90 -90   XYZ
    dof rx rz
    limits (-90.0 90.0)
           (-45.0 45.0)
  end
  begin
     id 29
     name rfingers
     direction -1 -4.49048e-011 6.02585e-026   
     length 0.699961   
     axis -3.84436e-014 -90 -90   XYZ
    dof rx
    limits (0.0 90.0)
  end
  begin
     id 30
     name rthumb
     direction -0.707107 -6.34854e-011 0.707107   
     length 1.00501   
     axis -90 -45 -2.19363e-014   XYZ
    dof rx rz
    limits (-45.0 45.0)
           (-45.0 45.0)
  end
:hierarchy
  begin
    root lhipjoint rhipjoint lowerback
    lhipjoint lfemur
    lfemur ltibia
    ltibia lfoot
    lfoot ltoes
    rhipjoint rfemur
    rfemur rtibia
    rtibia rfoot
    rfoot rtoes
    lowerback upperback
    upperback thorax
    thorax lowerneck lclavicle rclavicle
    lowerneck upperneck
    upperneck head
    lclavicle lhumerus
    lhumerus lradius
    lradius lwrist
    lwrist lhand lthumb
    lhand lfingers
    rclavicle rhumerus
    rhumerus rradius
    rradius rwrist
    rwrist rhand rthumb
    rhand rfingers
  end

#!OML:ASF H:\ManfredObstacles\Project 1\Capture day 2\Session 1\male.ASF
:FULLY-SPECIFIED
:DEGREES
187
root 2.2474 8.01456 18.665 -165.198 -12.1106 -184.567
lowerback 42.3836 4.76327 -0.119584
upperback 16.8717 -0.148363 -0.169505
thorax -1.27548 -2.27578 -0.0165289
lowerneck -33.732 -3.69116 -0.665017
upperneck 25.2471 -7.62232 7.27934
head 14.6812 -2.21643 1.44549
rclavicle 2.50469e-014 -1.35174e-014
rhumerus 27.4748 2.20542 -66.6346
rradius 42.5101
rwrist 25.8269
rhand -22.6461 -18.5993
rfingers 7.12502
rthumb 3.7849 -48.5454
lclavicle 2.50469e-014 -1.35174e-014
lhumerus 19.5712 -21.1113 68.8001
lradius 48.2052
lwrist -31.9217
lhand -23.7819 15.5631
lfingers 7.12502
lthumb 2.68799 45.5259
rfemur -91.8296 0.795555 31.8373
rtibia 144.815
rfoot -34.4822 -30.0692
rtoes -26.3779
lfemur -85.9018 16.4794 -27.2735
ltibia 146.028
lfoot -13.5844 30.9993
ltoes -15.2201
188
root 2.25822 8.04505 18.6068 -164.823 -12.0771 -184.751
lowerback 42.2225 4.64363 -0.0878241
upperback 16.8038 -0.226776 -0.207722
thorax -1.30709 -2.2884 -0.0445897
lowerneck -33.8229 -3.6856 -0.695333
upperneck 25.1863 -7.61111 7.33805
head 14.6764 -2.20505 1.4762
rclavicle 0 -2.44505e-014
rhumerus 29.078 1.33439 -67.1906
rradius 40.7669
rwrist 25.9775
rhand -21.6381 -18.5681
rfingers 7.12502
rthumb 4.75823 -48.4947
lclavicle 0 -2.44505e-014
lhumerus 21.3495 -20.9104 68.2968
lradius 47.7568
lwrist -31.6279
lhand -23.5827 15.7076
lfingers 7.12502
lthumb 2.88034 45.6679
rfemur -91.7041 0.982358 31.8912
rtibia 144.704
rfoot -34.5454 -30.3615
rtoes -26.643
lfemur -85.7868 16.4483 -27.2471
ltibia 145.845
lfoot -13.4986 30.7107
ltoes -15.1127
189
root 2.27028 8.07467 18.5468 -164.444 -12.0816 -184.941
lowerback 42.0565 4.47843 0.0189032
upperback 16.7477 -0.337738 -0.311888
thorax -1.32333 -2.30849 -0.16968
lowerneck -33.9086 -3.67549 -0.686188
upperneck 25.1006 -7.63662 7.46071
head 14.6646 -2.19731 1.51822
rclavicle 3.57812e-014 7.15625e-015
rhumerus 30.5419 0.474305 -67.9329
rradius 39.1401
rwrist 26.0327
rhand -20.6767 -18.4913
rfingers 7.12502
rthumb 5.68654 -48.395
lclavicle 3.57812e-014 7.15625e-015
lhumerus 23.1594 -20.716 67.7189
lradius 47.2538
lwrist -31.2793
lhand -23.2618 15.8299
lfingers 7.12502
lthumb 3.19028 45.7858
rfemur -91.5621 1.10709 31.9591
rtibia 144.611
rfoot -34.6294 -30.6424
rtoes -27.0529
lfemur -85.6781 16.3812 -27.2051
ltibia 145.661
lfoot -13.3898 30.414
ltoes -14.9952
190
root 2.28364 8.10353 18.4852 -164.063 -12.1228 -185.141
lowerback 41.9648 4.39395 -0.0951245
upperback 16.646 -0.418875 -0.208751
thorax -1.41296 -2.339 0.0287899
lowerneck -34.0629 -3.66854 -0.825735
upperneck 25.0707 -7.5465 7.46509
head 14.6812 -2.1679 1.56247
rclavicle 3.85642e-014 -3.08116e-014
rhumerus 31.9163 -0.0756305 -68.4018
rradius 37.6794
rwrist 25.9523
rhand -19.7688 -18.3707
rfingers 7.12502
rthumb 6.56303 -48.249
lclavicle 3.85642e-014 -3.08116e-014
lhumerus 24.8299 -20.271 67.5554
lradius 46.647
lwrist -31.017
lhand -22.8663 15.9146
lfingers 7.12502
lthumb 3.57221 45.8644
rfemur -91.4055 1.15706 32.0376
rtibia 144.528
rfoot -34.6949 -30.9249
rtoes -27.5469
lfemur -85.5714 16.277 -27.1577
ltibia 145.476
lfoot -13.2524 30.1203
ltoes -14.8656
191
root 2.29814 8.13127 18.4213 -163.676 -12.1894 -185.342
lowerback 41.8963 4.29063 -0.157955
upperback 16.5367 -0.50278 -0.146018
thorax -1.51621 -2.36373 0.160107
lowerneck -34.2086 -3.66102 -0.910353
upperneck 25.0357 -7.49033 7.48403
head 14.6946 -2.14596 1.5961
rclavicle -1.94809e-014 -3.37934e-015
rhumerus 33.0916 -0.613043 -68.9745
rradius 36.3586
rwrist 25.9885
rhand -18.9638 -18.1944
rfingers 7.12502
rthumb 7.34005 -48.0471
lclavicle -1.94809e-014 -3.37934e-015
lhumerus 26.4874 -19.8541 67.3875
lradius 45.9548
lwrist -30.8534
lhand -22.4156 15.9739
lfingers 7.12502
lthumb 4.00749 45.9159
rfemur -91.2471 1.1755 32.1248
rtibia 144.455
rfoot -34.7159 -31.2131
rtoes -28.0013
lfemur -85.4651 16.1494 -27.0936
ltibia 145.295
lfoot -13.0884 29.8346
ltoes -14.7477
192
root 2.31301 8.15762 18.3551 -163.274 -12.2751 -185.551
lowerback 41.8158 4.18319 -0.175031
upperback 16.4383 -0.575352 -0.111928
thorax -1.60329 -2.37808 0.233179
lowerneck -34.4031 -3.66256 -0.915289
upperneck 25.0067 -7.47766 7.47001
head 14.7172 -2.13759 1.59331
rclavicle -5.56597e-015 9.93923e-015
rhumerus 34.0748 -1.16702 -69.6144
rradius 35.177
rwrist 26.2588
rhand -18.3148 -17.9855
rfingers 7.12502
rthumb 7.96652 -47.8153
lclavicle -5.56597e-015 9.93923e-015
lhumerus 28.1649 -19.474 67.2329
lradius 45.1494
lwrist -30.8607
lhand -21.9325 16.003
lfingers 7.12502
lthumb 4.47394 45.9358
rfemur -91.1105 1.15264 32.2082
rtibia 144.393
rfoot -34.6918 -31.4911
rtoes -28.3459
lfemur -85.3685 15.9973 -27.0379
ltibia 145.12
lfoot -12.8869 29.5687
ltoes -14.6299
193
root 2.32828 8.18255 18.2859 -162.851 -12.3509 -185.751
lowerback 41.7092 4.08961 -0.138973
upperback 16.3546 -0.611936 -0.120342
thorax -1.66637 -2.3689 0.220471
lowerneck -34.6217 -3.66968 -0.814392
upperneck 24.98 -7.52355 7.43621
head 14.7434 -2.14571 1.55174
rclavicle -2.22639e-014 4.37326e-015
rhumerus 34.8576 -1.77524 -70.3344
rradius 34.1313
rwrist 26.7588
rhand -17.8129 -17.774
rfingers 7.12502
rthumb 8.45087 -47.5849
lclavicle -2.22639e-014 4.37326e-015
lhumerus 29.8588 -19.1695 67.0645
lradius 44.2428
lwrist -31.1519
lhand -21.4363 15.9964
lfingers 7.12502
lthumb 4.95311 45.9185
rfemur -90.9926 1.19586 32.2939
rtibia 144.334
rfoot -34.6481 -31.7817
rtoes -28.5455
lfemur -85.274 15.8576 -26.9622
ltibia 144.956
lfoot -12.7198 29.3124
ltoes -14.5055
